<svg height="496pt" viewBox="0 0 496 496" width="496pt" xmlns="http://www.w3.org/2000/svg"><path d="m376 416c-13.230469 0-24 10.769531-24 24s10.769531 24 24 24 24-10.769531 24-24-10.769531-24-24-24zm0 32c-4.414062 0-8-3.59375-8-8s3.585938-8 8-8 8 3.59375 8 8-3.585938 8-8 8zm0 0"/><path d="m104 416c-13.230469 0-24 10.769531-24 24s10.769531 24 24 24 24-10.769531 24-24-10.769531-24-24-24zm0 32c-4.414062 0-8-3.59375-8-8s3.585938-8 8-8 8 3.59375 8 8-3.585938 8-8 8zm0 0"/><path d="m208 32h16v16h-16zm0 0"/><path d="m240 32h160v16h-160zm0 0"/><path d="m416 32h16v16h-16zm0 0"/><path d="m448 152c0-13.230469-10.769531-24-24-24h-208c-13.230469 0-24 10.769531-24 24v136h256zm-232-8h208c4.414062 0 8 3.59375 8 8v72h-16v-48h-48v48h-32v-64h-112v64h-16v-72c0-4.40625 3.585938-8 8-8zm184 80h-16v-32h16zm-80-32h-80v-16h80zm-80 16h80v16h-80zm-32 64v-32h224v32zm0 0"/><path d="m480 416v-264c0-30.878906-25.128906-56-56-56h-16v-16h40c8.824219 0 16-7.175781 16-16v-48c0-8.824219-7.175781-16-16-16h-256c-8.824219 0-16 7.175781-16 16v48c0 8.824219 7.175781 16 16 16h40v16h-16c-30.871094 0-56 25.121094-56 56v24h-67.761719c-20.316406 0-39.078125 11.03125-48.949219 28.800781l-27.289062 49.128907v162.070312c-8.824219 0-16 7.175781-16 16v16c0 8.824219 7.175781 16 16 16h37.480469c9.007812 18.886719 28.238281 32 50.519531 32s41.503906-13.113281 50.519531-32h170.960938c9.007812 18.886719 28.238281 32 50.519531 32s41.503906-13.113281 50.519531-32h53.480469c8.824219 0 16-7.175781 16-16v-16c0-8.824219-7.175781-16-16-16zm-16-64h-8c-4.414062 0-8-3.59375-8-8v-16c0-4.40625 3.585938-8 8-8h8zm-272-336h256v48h-256zm56 64h144v16h-144zm-32 32h208c22.054688 0 40 17.945312 40 40v152h-8c-13.230469 0-24 10.769531-24 24v16c0 13.230469 10.769531 24 24 24h8v48h-37.480469c-9.007812-18.886719-28.238281-32-50.519531-32s-41.503906 13.113281-50.519531 32h-149.480469v-264c0-22.054688 17.945312-40 40-40zm-56 160h-96v-6.113281l18.734375-37.460938c1.371094-2.730469 4.105469-4.425781 7.152344-4.425781h70.113281zm-128 57.472656c9.289062 3.3125 16 12.113282 16 22.527344s-6.710938 19.214844-16 22.527344zm0 61.71875c18.230469-3.71875 32-19.878906 32-39.191406s-13.769531-35.472656-32-39.191406v-54.738282l25.273438-45.503906c7.054687-12.6875 20.453124-20.566406 34.964843-20.566406h67.761719v16h-70.113281c-9.152344 0-17.375 5.078125-21.472657 13.265625l-20.414062 40.847656v25.886719h112v128h-5.480469c-9.007812-18.886719-28.238281-32-50.519531-32s-41.503906 13.113281-50.519531 32h-21.480469zm-16 56.808594v-16h32.640625c-.375 2.625-.640625 5.28125-.640625 8s.265625 5.375.640625 8zm88 32c-22.054688 0-40-17.945312-40-40s17.945312-40 40-40 40 17.945312 40 40-17.945312 40-40 40zm55.359375-32c.375-2.625.640625-5.28125.640625-8s-.265625-5.375-.640625-8h161.28125c-.375 2.625-.640625 5.28125-.640625 8s.265625 5.375.640625 8zm216.640625 32c-22.054688 0-40-17.945312-40-40s17.945312-40 40-40 40 17.945312 40 40-17.945312 40-40 40zm104-32h-48.640625c.375-2.625.640625-5.28125.640625-8s-.265625-5.375-.640625-8h48.640625zm0 0"/><path d="m128 304h16v48h-16zm0 0"/><path d="m192 384h16v16h-16zm0 0"/><path d="m192 352h16v16h-16zm0 0"/><path d="m192 320h16v16h-16zm0 0"/></svg>