<svg height="407pt" viewBox="0 -62 407.28097 407" width="407pt" xmlns="http://www.w3.org/2000/svg"><path d="m24.984375 13.792969h61.441406c3.773438 0 6.824219-3.050781 6.824219-6.824219s-3.050781-6.828125-6.824219-6.828125h-61.441406c-3.773437 0-6.828125 3.054687-6.828125 6.828125s3.054688 6.824219 6.828125 6.824219zm0 0"/><path d="m59.117188 27.445312c0 3.773438 3.054687 6.828126 6.828124 6.828126h95.570313c3.773437 0 6.828125-3.054688 6.828125-6.828126 0-3.773437-3.054688-6.824218-6.828125-6.824218h-95.570313c-3.773437 0-6.828124 3.050781-6.828124 6.824218zm0 0"/><path d="m37.109375 171.648438h97.820313c3.773437 0 6.828124-3.054688 6.828124-6.828126 0-3.773437-3.054687-6.828124-6.828124-6.828124h-97.820313c-3.773437 0-6.824219 3.054687-6.824219 6.828124 0 3.773438 3.050782 6.828126 6.824219 6.828126zm0 0"/><path d="m351.535156 221.914062c-10.898437 0-19.765625 8.871094-19.765625 19.773438 0 10.898438 8.867188 19.765625 19.765625 19.765625 10.902344 0 19.773438-8.867187 19.773438-19.765625 0-10.902344-8.871094-19.773438-19.773438-19.773438zm0 25.886719c-3.375 0-6.113281-2.738281-6.113281-6.113281s2.738281-6.121094 6.113281-6.121094 6.121094 2.746094 6.121094 6.121094-2.746094 6.113281-6.121094 6.113281zm0 0"/><path d="m72.050781 221.914062c-10.902343 0-19.773437 8.871094-19.773437 19.773438 0 10.898438 8.871094 19.765625 19.773437 19.765625 10.898438 0 19.765625-8.867187 19.765625-19.765625 0-10.902344-8.867187-19.773438-19.765625-19.773438zm0 25.886719c-3.375 0-6.121093-2.738281-6.121093-6.113281s2.746093-6.121094 6.121093-6.121094 6.113281 2.746094 6.113281 6.121094-2.742187 6.113281-6.113281 6.113281zm0 0"/><path d="m407.277344 177.632812c0-3.015624-1.984375-5.492187-4.691406-6.394531l-122.554688-102.410156c-10.867188-9.074219-24.640625-14.074219-38.800781-14.074219h-189.304688c-19.902343 0-36.542969 14.917969-38.703125 34.707032l-13.066406 119.707031c-.824219 7.613281 1.628906 15.242187 6.742188 20.941406 5.105468 5.699219 12.425781 8.964844 20.078124 8.964844h3.441407c-.054688.871093-.132813 1.734375-.132813 2.613281 0 23.027344 18.734375 41.761719 41.765625 41.761719 23.027344 0 41.761719-18.734375 41.761719-41.761719 0-.882812-.078125-1.742188-.132812-2.613281h196.234374c-.054687.871093-.132812 1.734375-.132812 2.613281 0 23.027344 18.734375 41.761719 41.761719 41.761719 23.03125 0 41.765625-18.734375 41.765625-41.761719 0-1.644531-.121094-3.257812-.308594-4.855469 8.625-3.914062 14.28125-12.449219 14.28125-22.105469v-36.371093c0-.121094-.070312-.222657-.078125-.339844.007813-.136719.074219-.246094.074219-.382813zm-380.480469-86.691406c1.40625-12.847656 12.207031-22.535156 25.128906-22.535156h189.304688c10.960937 0 21.632812 3.875 30.042969 10.902344l109.496093 91.5h-.800781c-3.773438 0-6.828125 3.050781-6.828125 6.824218 0 3.773438 3.054687 6.828126 6.828125 6.828126h13.652344v20.140624h-19.058594c-.984375 0-1.90625.222657-2.753906.601563-6.007813-3.351563-12.917969-5.28125-20.273438-5.28125-7.21875 0-14.015625 1.84375-19.945312 5.082031-.644532-.199218-1.292969-.402344-2.007813-.402344h-45.183593v-30.753906l23.226562 10.054688c.859375.367187 1.777344.558594 2.710938.558594h55.980468c2.847656 0 5.386719-1.761719 6.386719-4.425782 1.007813-2.664062.253906-5.660156-1.886719-7.535156l-70.15625-61.441406c-1.246094-1.09375-2.847656-1.691406-4.503906-1.691406h-18.585938c-3.773437 0-6.824218 3.054687-6.824218 6.828124v88.402344h-102.402344v-81.578125h81.921875c3.773437 0 6.824219-3.050781 6.824219-6.824219 0-3.773437-3.050782-6.828124-6.824219-6.828124h-81.921875v-13.652344h88.746094c3.773437 0 6.828125-3.054688 6.828125-6.828125 0-3.773438-3.054688-6.828125-6.828125-6.828125h-204.800782c-3.773437 0-6.824218 3.054687-6.824218 6.828125 0 3.773437 3.050781 6.828125 6.824218 6.828125h102.402344v13.652344h-102.402344c-3.773437 0-6.824218 3.054687-6.824218 6.828124 0 3.773438 3.050781 6.824219 6.824218 6.824219h102.402344v81.582031h-61.921875c-.398437 0-.742187.160157-1.121093.226563-5.851563-3.125-12.519532-4.90625-19.597657-4.90625-7.21875 0-14.015625 1.84375-19.945312 5.078125-.640625-.199219-1.277344-.398438-1.980469-.398438h-35.734375l.707031-6.488281h16.714844c3.773438 0 6.824219-3.050781 6.824219-6.824219 0-3.773437-3.050781-6.828124-6.824219-6.828124h-15.222656zm257.601563 45.730469v-13.652344h9.191406l54.570312 47.789063h-36.40625l-27.355468-11.84375zm-257.421876 88.75c-3.832031 0-7.359374-1.574219-9.917968-4.429687-.753906-.84375-1.351563-1.773438-1.859375-2.738282h22.296875c-1.527344 2.242188-2.84375 4.640625-3.914063 7.167969zm45.074219 44.371094c-15.5 0-28.113281-12.605469-28.113281-28.105469s12.613281-28.113281 28.113281-28.113281 28.105469 12.613281 28.105469 28.113281-12.605469 28.105469-28.105469 28.105469zm34.546875-51.539063h48.09375v7.167969h-44.179687c-1.070313-2.527344-2.390625-4.925781-3.914063-7.167969zm61.746094 7.167969v-7.167969h148.648438c-1.527344 2.242188-2.84375 4.640625-3.914063 7.167969zm183.191406 44.371094c-15.5 0-28.105468-12.605469-28.105468-28.105469s12.605468-28.113281 28.105468-28.113281 28.113282 12.613281 28.113282 28.113281-12.613282 28.105469-28.113282 28.105469zm34.554688-51.539063h6.910156c-.734375 2.109375-2.105469 3.925782-3.9375 5.210938-.882812-1.808594-1.851562-3.5625-2.972656-5.210938zm0 0"/></svg>